<svg xmlns="http://www.w3.org/2000/svg" height="48" width="48" viewBox="0 0 48 48">
    <title>IttyKeys logo</title>
    <path style="fill:#e6e6e6;" d="m 28.019531,19.447265 c -0.06836,3.3e-4 -1.926757,4.77e-4
    -1.995117,9.77e-4 c -0.29148,0.504859 -0.442135,0.96805 -0.740235,1.484375 h 2.735352 z m
    -13.21875,0.0039 l -0.740234,1.481445 h 3.500976 v 6.138672 h
    -2.760742 l -0.71289,1.481445 h 8.748046 c 0,-0.493814 -5e-6,-0.987631 0,
    -1.481445 h -3.811523 c 0.0069,-2.046218 0.01268,-4.092454 0.01953,-6.138672 h 3.791992 c
    0,-0.493814 -5e-6,-0.987631 0,-1.481445 z m 17.908203,0 l -0.0059,0.04004 c -0.120135,1.752383
    -1.459011,3.421084 -3.240235,3.673828 c -1.015644,0.26414 -2.859194,0.396484 -4.298828,0.396484 c
    0,1.663674 6e-6,3.327543 0,4.991211 h 1.481446 V 24.74414 c 1.360824,-0.0127 2.811896,-0.105704 4.046875,0.575196 c
    1.193873,0.614274 2.006277,1.89542 2.063476,3.233398 h 1.455078 C 34.045902,26.905331 33.304833,25.262245 31.96875,24.241211 c
    -0.288355,-0.30987 0.107541,-0.634439 0.36914,-0.783203 c 1.115129,-1.031044 1.733318,-2.511438 1.882813,
    -4.006836 z m -21.303711,0.04687 c -0.05892,0.0082 -0.117837,0.01631 -0.176757,0.02441 C
    9.7104522,19.756599 8.1712301,20.666702 7.6660156,22.18846 C 7.5440708,22.5376 7.4750128,22.901378
    7.3955078,23.261703 H 6.114258 v 1.480468 h 1.2900389 c 0.1507398,1.381769 0.9920351,2.707673 2.2929687,3.263672 C
    10.2355,28.261093 10.816279,28.41889 11.405273,28.50096 V 27.004883 C 10.227275,26.846423 9.1136564,25.960949 8.9384766,24.74414 c
    -0.2777147,-1.261678 0.16888,-2.785263 1.3867184,-3.389648 c 0.335815,-0.183515 0.704569,-0.30247
    1.080078,-0.37207 z m 25.189453,0.0039 v 1.49707 c 1.177999,0.15846 2.291617,1.043934 2.466797,2.260742 c
    0.277715,1.261679 -0.16888,2.785264 -1.386719,3.389649 c -0.335814,0.183515 -0.704568,0.30247 -1.080078,0.37207
    v 1.486328 c 1.528524,-0.18469 3.110246,-1.037913 3.671875,-2.544922 c 0.157875,-0.391934 0.235028,-0.809243 0.323243,
    -1.220703 h 1.295898 v -1.480468 h -1.302734 c -0.1168,-0.878895 -0.436984,-1.706969
    -1.051758,-2.379883 c -0.750499,-0.823659 -1.857519,-1.220753 -2.936524,-1.379883 z" />
</svg>