<svg xmlns="http://www.w3.org/2000/svg" height="9.1054688" width="35.771484" viewBox="0 0 35.771484 9.1054688">
<title>IttyKeys logo</title>
    <path style="fill:#e6e6e6" d="m 21.905273,0 c -0.06836,3.3e-4 -1.926757,4.77e-4 -1.995117,9.77e-4 c
    -0.29148,0.504859 -0.442135,0.96805 -0.740235,1.484375 h 2.735352 z M 8.686523,0.0039 L 7.946289,
    1.485345 h 3.500976 V 7.624017 H 8.686523 l -0.71289,1.481445 h 8.748046 c 0,-0.493814 -5e-6,-0.987631
    0,-1.481445 h -3.811523 c 0.0069,-2.046218 0.01268,-4.092454 0.01953,-6.138672 h 3.791992 c 0,-0.493814
    -5e-6,-0.987631 0,-1.481445 z m 17.908203,0 l -0.0059,0.04004 c -0.120135,1.752383 -1.459011,3.421084
    -3.240235,3.673828 c -1.015644,0.26414 -2.859194,0.396484 -4.298828,0.396484 c 0,1.663674 6e-6,3.327543
    0,4.991211 h 1.481446 V 5.296875 c 1.360824,-0.0127 2.811896,-0.105704 4.046875,0.575196 c
    1.193873,0.614274 2.006277,1.89542 2.063476,3.233398 h 1.455078 C 27.931644,7.458066 27.190575,5.81498
    25.854492,4.793946 c -0.288355,-0.30987 0.107541,-0.634439 0.36914,-0.783203 C 27.338761,2.979699
    27.95695,1.499305 28.106445,0.003907 Z M 5.291015,0.05077 C 5.232095,0.05897 5.173178,0.06708 5.114258,0.07518
    C 3.5961942,0.309334 2.0569721,1.219437 1.5517576,2.741195 C 1.4298128,3.090335 1.3607548,3.454113 1.2812498,3.814438 H 0 V
    5.294906 H 1.2900389 C 1.4407787,6.676675 2.282074,8.002579 3.5830076,8.558578 C 4.121242,8.813828
    4.702021,8.971625 5.291015,9.053695 V 7.557618 C 4.113017,7.399158 2.9993984,6.513684
    2.8242186,5.296875 C 2.5465039,4.035197 2.9930986,2.511612 4.210937,1.907227 C 4.546752,1.723712
    4.915506,1.604757 5.291015,1.535157 Z m 25.189453,0.0039 v 1.49707 c 1.177999,0.15846 2.291617,1.043934
    2.466797,2.260742 c 0.277715,1.261679 -0.16888,2.785264 -1.386719,3.389649 c -0.335814,0.183515 -0.704568,0.30247
    -1.080078,0.37207 v 1.486328 c 1.528524,-0.18469 3.110246,-1.037913 3.671875,-2.544922 c 0.157875,
    -0.391934 0.235028,-0.809243 0.323243,-1.220703 h 1.295898 V 3.814436 H 34.46875 C 34.35195,2.935541 34.031766,
    2.107467 33.416992,1.434553 C 32.666493,0.610894 31.559473,0.2138 30.480468,0.05467 Z"/>
</svg>